<?xml version="1.0" encoding="UTF-8"?>
<svg width="130px" height="130px" viewBox="0 0 130 130" version="1.1" xmlns="http://www.w3.org/2000/svg" xmlns:xlink="http://www.w3.org/1999/xlink">
    <title>assets_web_app/ic_shelf@1x</title>
    <defs>
        <circle id="path-1" cx="65" cy="65" r="65"></circle>
        <linearGradient x1="100%" y1="50%" x2="50%" y2="50%" id="linearGradient-3">
            <stop stop-color="#E9E2FF" offset="0%"></stop>
            <stop stop-color="#FEFEFE" offset="100%"></stop>
        </linearGradient>
    </defs>
    <g id="Page-1" stroke="none" stroke-width="1" fill="none" fill-rule="evenodd">
        <g id="Assets-Web-App" transform="translate(-250.000000, -3659.000000)">
            <g id="assets_web_app/ic_shelf@1x" transform="translate(250.000000, 3659.000000)">
                <g id="Oval-Clipped">
                    <mask id="mask-2" fill="white">
                        <use xlink:href="#path-1"></use>
                    </mask>
                    <use id="path-1" fill="#F6F9FB" xlink:href="#path-1"></use>
                    <circle id="Oval" fill="#DEE5F5" fill-rule="nonzero" mask="url(#mask-2)" cx="65" cy="123" r="65"></circle>
                </g>
                <g id="rak" transform="translate(37.000000, 37.000000)">
                    <g id="Group">
                        <polygon id="Fill-1" fill="url(#linearGradient-3)" points="15.875 39.6057544 46.772 39.6057544 46.772 5.17754386 15.875 5.17754386"></polygon>
                        <path d="M8.644,5.17754386 L8.643,19.363 L46.771,19.363 L46.772,5.17754386 L8.644,5.17754386 Z M52.041,40.2600702 L46.772,40.2600702 L46.771,24.539 L8.643,24.539 L8.644,40.2600702 L3.375,40.2600702 L3.375,5.17754386 L3.41060513e-13,5.17754386 L3.41060513e-13,4.69846384e-13 L55.417,4.69846384e-13 L55.417,5.17754386 L52.041,5.17754386 L52.041,40.2600702 Z" id="Combined-Shape" fill="#365486"></path>
                        <polygon id="Combined-Shape" fill="#365486" points="52.041 55.1403509 46.772 55.1403509 46.772 50.9957895 8.644 50.9957895 8.644 55.1403509 3.375 55.1403509 3.375 45.8197895 52.041 45.8197895"></polygon>
                        <polygon id="Fill-4" fill="#5079D6" points="22.927 14.8586667 32.49 14.8586667 32.49 9.68210526 22.927 9.68210526"></polygon>
                        <polygon id="Fill-5" fill="#5079D6" points="22.927 34.7956491 32.49 34.7956491 32.49 29.6190877 22.927 29.6190877"></polygon>
                    </g>
                </g>
            </g>
        </g>
    </g>
</svg>