<?xml version="1.0" encoding="UTF-8"?>
<svg version="1.1" xmlns="http://www.w3.org/2000/svg" width="512" height="512">
<path d="M0 0 C1.01790619 0.00215515 2.03581238 0.0043103 3.08456421 0.00653076 C17.69363523 0.05620146 32.02575853 0.30709809 46.375 3.3125 C47.34985352 3.51117676 48.32470703 3.70985352 49.32910156 3.91455078 C97.7109774 14.03517194 141.69928269 35.9516877 177.375 70.3125 C178.3640332 71.26068604 178.3640332 71.26068604 179.37304688 72.22802734 C188.86130305 81.37247479 197.6012044 90.66984009 205.375 101.3125 C206.23306152 102.46355017 207.09113451 103.61459177 207.94921875 104.765625 C213.98736829 112.95680614 219.34595521 121.47054105 224.375 130.3125 C224.73948242 130.94430176 225.10396484 131.57610352 225.47949219 132.22705078 C247.08534998 169.97532572 256.85198095 212.74189997 256.6875 255.9375 C256.68534485 256.95540619 256.6831897 257.97331238 256.68096924 259.02206421 C256.63129854 273.63113523 256.38040191 287.96325853 253.375 302.3125 C253.07698486 303.77478027 253.07698486 303.77478027 252.77294922 305.26660156 C242.65232806 353.6484774 220.7358123 397.63678269 186.375 433.3125 C185.74287598 433.97185547 185.11075195 434.63121094 184.45947266 435.31054688 C175.31502521 444.79880305 166.01765991 453.5387044 155.375 461.3125 C154.22394983 462.17056152 153.07290823 463.02863451 151.921875 463.88671875 C143.73224019 469.92427396 135.22961724 475.30707302 126.375 480.3125 C125.66778809 480.7146875 124.96057617 481.116875 124.23193359 481.53125 C101.09654164 494.5566741 75.92537591 503.30551461 49.9375 508.625 C49.21860596 508.77235596 48.49971191 508.91971191 47.7590332 509.0715332 C33.08339502 511.86090125 18.55831162 512.66142619 3.64770508 512.62817383 C0.70811513 512.6250221 -2.2304558 512.64854926 -5.16992188 512.67382812 C-18.54306192 512.71848737 -31.43916711 511.51301542 -44.625 509.3125 C-46.33055054 509.03031616 -46.33055054 509.03031616 -48.07055664 508.74243164 C-91.33802759 500.97044532 -132.38793216 480.98345309 -165.625 452.3125 C-166.37007813 451.67828125 -167.11515625 451.0440625 -167.8828125 450.390625 C-181.38779833 438.57948485 -194.05918743 425.82889772 -204.625 411.3125 C-205.48149066 410.16255169 -206.33826433 409.01281411 -207.1953125 407.86328125 C-213.23534209 399.67315742 -218.61867614 391.16870382 -223.625 382.3125 C-224.0271875 381.60528809 -224.429375 380.89807617 -224.84375 380.16943359 C-237.8691741 357.03404164 -246.61801461 331.86287591 -251.9375 305.875 C-252.08485596 305.15610596 -252.23221191 304.43721191 -252.3840332 303.6965332 C-255.35789088 288.05024391 -255.99800362 272.57681954 -255.9375 256.6875 C-255.93534485 255.66959381 -255.9331897 254.65168762 -255.93096924 253.60293579 C-255.88129854 238.99386477 -255.63040191 224.66174147 -252.625 210.3125 C-252.42632324 209.33764648 -252.22764648 208.36279297 -252.02294922 207.35839844 C-241.90232806 158.9765226 -219.9858123 114.98821731 -185.625 79.3125 C-184.99287598 78.65314453 -184.36075195 77.99378906 -183.70947266 77.31445312 C-174.56502521 67.82619695 -165.26765991 59.0862956 -154.625 51.3125 C-153.47394983 50.45443848 -152.32290823 49.59636549 -151.171875 48.73828125 C-142.98224019 42.70072604 -134.47961724 37.31792698 -125.625 32.3125 C-124.91778809 31.9103125 -124.21057617 31.508125 -123.48193359 31.09375 C-100.34654164 18.0683259 -75.17537591 9.31948539 -49.1875 4 C-48.46860596 3.85264404 -47.74971191 3.70528809 -47.0090332 3.5534668 C-31.36274391 0.57960912 -15.88931954 -0.06050362 0 0 Z " fill="#9DD6F4" transform="translate(255.625,-0.3125)"/>
<path d="M0 0 C67.32 0 134.64 0 204 0 C204 41.2601334 204 41.2601334 197.5 54 C196.98832275 55.00836914 196.98832275 55.00836914 196.46630859 56.03710938 C190.19817538 67.76584198 179.38197216 79.04721114 167 84 C167 159.9 167 235.8 167 314 C100.01 314 33.02 314 -36 314 C-36.48363641 256.68460723 -36.48363641 256.68460723 -36.5859375 232.68164062 C-36.60950064 227.19701734 -36.63367651 221.71239783 -36.65917969 216.2277832 C-36.66234467 215.5404019 -36.66550966 214.85302059 -36.66877055 214.14480954 C-36.72092454 203.05585268 -36.81550723 191.96764459 -36.92583355 180.87913132 C-37.03816181 169.49422473 -37.10382965 158.10987195 -37.12906194 146.72437614 C-37.14470388 140.33104849 -37.18144493 133.93941668 -37.26876068 127.54663277 C-37.35030939 121.52722506 -37.37532163 115.51020878 -37.35729218 109.49030113 C-37.36058949 107.28313312 -37.38440976 105.07588394 -37.4304657 102.86919403 C-37.7530589 86.61324205 -37.7530589 86.61324205 -34.84250736 82.27455401 C-31.69891702 79.03203401 -27.93132694 77.11637863 -24 75 C-11.14503137 63.92574719 -4.6345895 51.35565273 -1 35 C-0.67 23.45 -0.34 11.9 0 0 Z " fill="#E0E6F3" transform="translate(209,99)"/>
<path d="M0 0 C4.87038599 4.06195277 9.46346004 8.31481886 13.94506836 12.79980469 C14.59957977 13.45095749 15.25409119 14.10211029 15.92843628 14.772995 C18.06819866 16.90333837 20.2042461 19.03735719 22.33984375 21.171875 C23.83192256 22.66073812 25.3240756 24.14952686 26.81629944 25.63824463 C29.9304981 28.74647707 33.04264469 31.85674772 36.15356445 34.96826172 C40.14906109 38.96386057 44.15142727 42.95250221 48.15553951 46.93946457 C51.23259112 50.00543494 54.30512484 53.0759016 57.3763752 56.14768219 C58.85123122 57.62135502 60.32771622 59.09339938 61.80583 60.56380463 C63.8622013 62.61044175 65.91221521 64.6632404 67.96069336 66.71777344 C68.57619553 67.3276561 69.19169769 67.93753876 69.82585144 68.56590271 C74 72.77167591 74 72.77167591 74 75 C74.54398437 75.21527344 75.08796875 75.43054688 75.6484375 75.65234375 C78.80929113 77.46379641 81.12763796 79.95496023 83.625 82.5625 C86.96402902 86.22714016 86.96402902 86.22714016 91 89 C91.63842773 90.76806641 91.63842773 90.76806641 92.18359375 93.1015625 C92.38766846 93.97039062 92.59174316 94.83921875 92.80200195 95.734375 C93.91865206 100.81356719 94.98894475 105.89869197 96 111 C96.25861816 112.26408691 96.25861816 112.26408691 96.52246094 113.55371094 C101.97616398 141.50252177 101.83602999 175.13597181 96 203 C95.70198486 204.46228027 95.70198486 204.46228027 95.39794922 205.95410156 C85.27732806 254.3359774 63.3608123 298.32428269 29 334 C28.36787598 334.65935547 27.73575195 335.31871094 27.08447266 335.99804688 C17.94002521 345.48630305 8.64265991 354.2262044 -2 362 C-3.15105017 362.85806152 -4.30209177 363.71613451 -5.453125 364.57421875 C-13.64275981 370.61177396 -22.14538276 375.99457302 -31 381 C-31.70721191 381.4021875 -32.41442383 381.804375 -33.14306641 382.21875 C-56.27845836 395.2441741 -81.44962409 403.99301461 -107.4375 409.3125 C-108.15639404 409.45985596 -108.87528809 409.60721191 -109.6159668 409.7590332 C-123.6337813 412.42337007 -137.73911443 413.46004928 -151.98779297 413.59033203 C-153.7641547 413.61368357 -155.54036014 413.65506354 -157.31591797 413.71337891 C-159.93289634 413.79872034 -162.5458674 413.83100677 -165.1640625 413.8515625 C-165.94955475 413.88657867 -166.735047 413.92159485 -167.54434204 413.95767212 C-170.79458947 413.93215984 -173.12948404 413.81340026 -175.57429409 411.52899742 C-176.33457456 410.57435821 -176.33457456 410.57435821 -177.11021423 409.60043335 C-181.57913959 404.24164821 -186.493567 399.37387844 -191.43334961 394.453125 C-192.4690668 393.41769047 -193.50456268 392.38203453 -194.53985596 391.34617615 C-197.3284411 388.55730611 -200.1200811 385.77151277 -202.91231227 382.98629379 C-205.83824846 380.06664269 -208.76132056 377.1441269 -211.68470764 374.22192383 C-217.21090026 368.6988294 -222.73963522 363.17828731 -228.26930577 357.65867519 C-234.56879653 351.37039269 -240.86542101 345.07924338 -247.16181552 338.78786087 C-260.10470764 325.85539889 -273.05116503 312.92651146 -286 300 C-282.66568077 295.7933614 -279.36451595 292.39825908 -275.11541748 289.10980225 C-267.01803006 282.55694388 -260.06408127 276.31756607 -258.19689941 265.68859863 C-257.42430405 257.82324743 -257.53070941 249.98713699 -257.77019215 242.09626102 C-257.86848166 238.14207854 -257.85084434 234.18825515 -257.84661865 230.23309326 C-257.85570045 222.77642036 -257.96581585 215.32496834 -258.11423659 207.86990809 C-258.27840546 199.36928673 -258.32692678 190.86915876 -258.36677027 182.36718798 C-258.45112703 164.90832176 -258.6925789 147.45646148 -259 130 C-277.15 130 -295.3 130 -314 130 C-314 111.85 -314 93.7 -314 75 C-304.96625 74.79375 -295.9325 74.5875 -286.625 74.375 C-283.79244629 74.28395996 -280.95989258 74.19291992 -278.04150391 74.09912109 C-275.7699048 74.0698866 -273.4982529 74.04441108 -271.2265625 74.0234375 C-270.06858154 73.97227783 -268.91060059 73.92111816 -267.7175293 73.8684082 C-260.99445518 73.86125447 -257.47146482 74.77736845 -252.61083984 79.56103516 C-251.04036854 81.34506186 -249.50702726 83.16206631 -248 85 C-247.4007883 85.45522411 -246.8015766 85.91044823 -246.18420696 86.37946701 C-242.48076827 89.53018615 -240.87466164 92.44464667 -240.37232208 97.24736977 C-240.04113935 102.89519264 -240.13376406 108.54110576 -240.20532227 114.1953125 C-240.20729786 116.37380408 -240.20618636 118.55230031 -240.20222473 120.73078918 C-240.2002185 126.63342976 -240.24133768 132.53507209 -240.29024243 138.43748093 C-240.33403822 144.61004305 -240.33811647 150.78262874 -240.34642029 156.95532227 C-240.36816627 168.63900387 -240.42559542 180.32222631 -240.49586672 192.00570583 C-240.55080703 201.34315543 -240.58938407 210.68049336 -240.61547852 220.01806641 C-240.6173545 220.6827906 -240.61923048 221.34751478 -240.62116331 222.03238213 C-240.63735456 227.81507548 -240.65242353 233.59777171 -240.66738224 239.38046837 C-240.73317874 264.25398943 -240.87264078 289.12654158 -241 314 C-173.68 314 -106.36 314 -37 314 C-37.15082031 297.50128906 -37.30164063 281.00257813 -37.45703125 264.00390625 C-37.52344077 253.56312467 -37.58655825 243.12249583 -37.63476562 232.68164062 C-37.66029237 227.19701662 -37.68648289 221.71239704 -37.71411133 216.2277832 C-37.71754006 215.5404019 -37.7209688 214.85302059 -37.72450143 214.14480954 C-37.78100194 203.05578368 -37.88346625 191.96763657 -38.00298635 180.87913132 C-38.12467527 169.49422678 -38.19581521 158.10997218 -38.22315043 146.72437614 C-38.24009621 140.33091891 -38.27989815 133.93945186 -38.37449074 127.54663277 C-38.46283678 121.5271157 -38.4899324 115.51040494 -38.47039986 109.49030113 C-38.47397199 107.28311015 -38.49977859 105.07582393 -38.54967117 102.86919403 C-38.89950555 86.59657056 -38.89950555 86.59657056 -35.7318666 82.26649737 C-32.26748901 78.9823257 -28.2597962 77.10883645 -24 75 C-11.78886025 64.87456234 -3.21919526 49.75323546 -1 34 C-0.6252197 28.14830839 -0.49156444 22.29911287 -0.375 16.4375 C-0.33674791 14.84047517 -0.29769218 13.24346939 -0.2578125 11.64648438 C-0.16260319 7.76448049 -0.07829048 3.88238044 0 0 Z " fill="#7FA7FB" transform="translate(413,99)"/>
<path d="M0 0 C21.45 0 42.9 0 65 0 C65 42.9 65 85.8 65 130 C43.55 130 22.1 130 0 130 C0 136.27 0 142.54 0 149 C21.45 149 42.9 149 65 149 C65 160.88 65 172.76 65 185 C43.55 185 22.1 185 0 185 C0 191.27 0 197.54 0 204 C21.45 204 42.9 204 65 204 C65 215.88 65 227.76 65 240 C43.55 240 22.1 240 0 240 C0 246.27 0 252.54 0 259 C21.45 259 42.9 259 65 259 C65 277.15 65 295.3 65 314 C31.67 314 -1.66 314 -36 314 C-36.48363641 256.68460723 -36.48363641 256.68460723 -36.5859375 232.68164062 C-36.60950064 227.19701734 -36.63367651 221.71239783 -36.65917969 216.2277832 C-36.66234467 215.5404019 -36.66550966 214.85302059 -36.66877055 214.14480954 C-36.72092454 203.05585268 -36.81550723 191.96764459 -36.92583355 180.87913132 C-37.03816181 169.49422473 -37.10382965 158.10987195 -37.12906194 146.72437614 C-37.14470388 140.33104849 -37.18144493 133.93941668 -37.26876068 127.54663277 C-37.35030939 121.52722506 -37.37532163 115.51020878 -37.35729218 109.49030113 C-37.36058949 107.28313312 -37.38440976 105.07588394 -37.4304657 102.86919403 C-37.7530589 86.61324205 -37.7530589 86.61324205 -34.84250736 82.27455401 C-31.69891702 79.03203401 -27.93132694 77.11637863 -24 75 C-11.62889245 64.34258212 -2.10374702 49.74150637 -0.85739136 33.09533691 C-0.57651718 27.71250183 -0.47997235 22.32616339 -0.375 16.9375 C-0.189375 8.5534375 -0.189375 8.5534375 0 0 Z " fill="#F2F7FF" transform="translate(209,99)"/>
<path d="M0 0 C45.87 0 91.74 0 139 0 C139 41.2601334 139 41.2601334 132.5 54 C131.98832275 55.00836914 131.98832275 55.00836914 131.46630859 56.03710938 C125.17023136 67.81812996 115.01077823 76.65948118 104 84 C102.00664997 84.24609566 102.00664997 84.24609566 99.69099426 84.24050903 C98.81179825 84.24325836 97.93260223 84.24600769 97.02676392 84.24884033 C95.58422745 84.2380545 95.58422745 84.2380545 94.11254883 84.22705078 C93.09773941 84.22734283 92.08292999 84.22763489 91.03736877 84.22793579 C87.67716982 84.22654049 84.31719156 84.21096972 80.95703125 84.1953125 C78.62961447 84.19158309 76.30219613 84.18873578 73.97477722 84.18673706 C67.84432655 84.17909498 61.71397041 84.1594415 55.58355713 84.1373291 C48.23058272 84.11328927 40.87757673 84.10409243 33.52457428 84.09242249 C22.34965041 84.07301751 11.17493402 84.03469878 0 84 C0 56.28 0 28.56 0 0 Z " fill="#C8CEDF" transform="translate(274,99)"/>
<path d="M0 0 C18.15 0 36.3 0 55 0 C56.04425538 30.19415338 56.04425538 30.19415338 56.30660057 45.29827118 C56.44976853 53.41391603 56.63104046 61.52240522 56.96142578 69.6328125 C59.10335864 123.220507 59.10335864 123.220507 47.36582756 136.81412697 C41.93803433 142.47708038 35.77590072 147.07063798 29 151 C16.95889074 145.22178929 5.26342209 136.67903429 0 124 C-4.57633271 105.93862668 -2.53032078 85.47508201 -1.80066907 66.97195017 C-1.48942989 58.93595648 -1.35599966 50.89796715 -1.22070312 42.85742188 C-0.97941975 28.5630634 -0.47862262 14.29273511 0 0 Z " fill="#F3D552" transform="translate(99,247)"/>
<path d="M0 0 C21.45 0 42.9 0 65 0 C65 27.72 65 55.44 65 84 C32 84 -1 84 -35 84 C-32.3254949 81.3254949 -30.29663069 79.39576105 -27.3125 77.3125 C-14.03718861 67.44238001 -4.92496881 54.2235372 -1.42602539 37.96582031 C-0.42811025 31.01872968 -0.51147247 23.94319435 -0.375 16.9375 C-0.189375 8.5534375 -0.189375 8.5534375 0 0 Z " fill="#DFE5F2" transform="translate(209,99)"/>
<path d="M0 0 C8.91 0 17.82 0 27 0 C27.56826303 15.73616495 28.02698343 31.4639826 28.2953043 47.2074728 C28.42330448 54.52061066 28.59776804 61.82678206 28.88598633 69.13549805 C30.94458472 122.34605903 30.94458472 122.34605903 19.74410534 135.48706532 C14.58238651 140.92070527 8.67121718 145.56380647 2 149 C1.34 149 0.68 149 0 149 C0 99.83 0 50.66 0 0 Z " fill="#E59022" transform="translate(127,248)"/>
<path d="M0 0 C18.15 0 36.3 0 55 0 C55 18.15 55 36.3 55 55 C36.85 55 18.7 55 0 55 C0 36.85 0 18.7 0 0 Z " fill="#6D7A83" transform="translate(99,174)"/>
<path d="M0 0 C43.23 0 86.46 0 131 0 C131 6.27 131 12.54 131 19 C87.77 19 44.54 19 0 19 C0 12.73 0 6.46 0 0 Z " fill="#727F88" transform="translate(209,339)"/>
<path d="M0 0 C43.23 0 86.46 0 131 0 C131 6.27 131 12.54 131 19 C87.77 19 44.54 19 0 19 C0 12.73 0 6.46 0 0 Z " fill="#727F88" transform="translate(209,284)"/>
<path d="M0 0 C43.23 0 86.46 0 131 0 C131 5.94 131 11.88 131 18 C130 19 130 19 127.84669399 19.12304783 C126.88895108 19.12212604 125.93120817 19.12120424 124.94444275 19.12025452 C123.30162071 19.12231651 123.30162071 19.12231651 121.62561035 19.12442017 C120.41360962 19.12082489 119.20160889 19.11722961 117.95288086 19.11352539 C116.05071556 19.11374443 116.05071556 19.11374443 114.11012268 19.1139679 C110.62267578 19.11425585 107.13526299 19.10835945 103.64782405 19.10139394 C100.00696277 19.09516007 96.36610078 19.09455658 92.72523499 19.09336853 C85.82623028 19.09025531 78.92724135 19.08204205 72.0282436 19.07201904 C64.17589315 19.06085761 56.32354197 19.05534738 48.47118556 19.05032361 C32.31411421 19.03985943 16.15705973 19.02205971 0 19 C0 12.73 0 6.46 0 0 Z " fill="#738089" transform="translate(209,229)"/>
<path d="M0 0 C8.91 0 17.82 0 27 0 C27 18.15 27 36.3 27 55 C18.09 55 9.18 55 0 55 C0 36.85 0 18.7 0 0 Z " fill="#4E5A61" transform="translate(127,174)"/>
<path d="M0 0 C11.88 0 23.76 0 36 0 C34.02522729 21.72249978 25.23666252 35.03081232 9.140625 49.30859375 C3.20323326 54 3.20323326 54 0 54 C0 36.18 0 18.36 0 0 Z " fill="#6E7B84" transform="translate(173,128)"/>
<path d="M0 0 C21.78 0 43.56 0 66 0 C66 5.94 66 11.88 66 18 C44.22 18 22.44 18 0 18 C0 12.06 0 6.12 0 0 Z " fill="#4F5B62" transform="translate(274,229)"/>
<path d="M0 0 C21.45 0 42.9 0 65 0 C65 5.94 65 11.88 65 18 C43.55 18 22.1 18 0 18 C0 12.06 0 6.12 0 0 Z " fill="#4E5A61" transform="translate(274,340)"/>
<path d="M0 0 C21.45 0 42.9 0 65 0 C65 5.94 65 11.88 65 18 C43.55 18 22.1 18 0 18 C0 12.06 0 6.12 0 0 Z " fill="#4E5A61" transform="translate(274,284)"/>
<path d="M0 0 C18.15 0 36.3 0 55 0 C55 5.94 55 11.88 55 18 C36.85 18 18.7 18 0 18 C0 12.06 0 6.12 0 0 Z " fill="#F1F6FE" transform="translate(99,229)"/>
<path d="M0 0 C8.91 0 17.82 0 27 0 C27 5.94 27 11.88 27 18 C18.09 18 9.18 18 0 18 C0 12.06 0 6.12 0 0 Z " fill="#E0E6F3" transform="translate(127,229)"/>
</svg>
