<?xml version="1.0" ?>
<!-- Uploaded to: SVG Repo, www.svgrepo.com, Generator: SVG Repo Mixer Tools -->
<svg fill="#000000" width="800px" height="800px" viewBox="0 0 32 32" enable-background="new 0 0 32 32" id="Layer_3" version="1.1" xml:space="preserve" xmlns="http://www.w3.org/2000/svg" xmlns:xlink="http://www.w3.org/1999/xlink">
<g>
<path d="M16,18c-4.411,0-8,3.589-8,8v3c0,0.552,0.448,1,1,1h14c0.552,0,1-0.448,1-1v-3C24,21.589,20.411,18,16,18z M22,28h-2v-1   c0-0.552-0.448-1-1-1s-1,0.448-1,1v1h-4v-1c0-0.552-0.448-1-1-1s-1,0.448-1,1v1h-2v-2c0-3.309,2.691-6,6-6s6,2.691,6,6V28z"/>
<path d="M12,12.138v1.724C12,15.592,13.408,17,15.138,17h1.724C18.592,17,20,15.592,20,13.862v-1.724C20,10.408,18.592,9,16.862,9   h-1.724C13.408,9,12,10.408,12,12.138z M14,12.138C14,11.511,14.511,11,15.138,11h1.724C17.489,11,18,11.511,18,12.138v1.724   C18,14.489,17.489,15,16.862,15h-1.724C14.511,15,14,14.489,14,13.862V12.138z"/>
<path d="M22,11c-0.552,0-1,0.448-1,1s0.448,1,1,1c3.309,0,6,2.691,6,6v2h-2v-1c0-0.552-0.448-1-1-1s-1,0.448-1,1v2   c0,0.552,0.448,1,1,1h4c0.552,0,1-0.448,1-1v-3C30,14.589,26.411,11,22,11z"/>
<path d="M21.138,10h1.724C24.592,10,26,8.592,26,6.862V5.138C26,3.408,24.592,2,22.862,2h-1.724C19.408,2,18,3.408,18,5.138v1.724   C18,8.592,19.408,10,21.138,10z M20,5.138C20,4.511,20.511,4,21.138,4h1.724C23.489,4,24,4.511,24,5.138v1.724   C24,7.489,23.489,8,22.862,8h-1.724C20.511,8,20,7.489,20,6.862V5.138z"/>
<path d="M3,23h4c0.552,0,1-0.448,1-1v-2c0-0.552-0.448-1-1-1s-1,0.448-1,1v1H4v-2c0-3.309,2.691-6,6-6c0.552,0,1-0.448,1-1   s-0.448-1-1-1c-4.411,0-8,3.589-8,8v3C2,22.552,2.448,23,3,23z"/>
<path d="M9.138,10h1.724C12.592,10,14,8.592,14,6.862V5.138C14,3.408,12.592,2,10.862,2H9.138C7.408,2,6,3.408,6,5.138v1.724   C6,8.592,7.408,10,9.138,10z M8,5.138C8,4.511,8.511,4,9.138,4h1.724C11.489,4,12,4.511,12,5.138v1.724C12,7.489,11.489,8,10.862,8   H9.138C8.511,8,8,7.489,8,6.862V5.138z"/>
</g>
</svg>