<?xml version="1.0" encoding="utf-8"?>

<!-- Uploaded to: SVG Repo, www.svgrepo.com, Generator: SVG Repo Mixer Tools -->
<svg fill="#000000" height="800px" width="800px" version="1.1" id="Icons" xmlns="http://www.w3.org/2000/svg" xmlns:xlink="http://www.w3.org/1999/xlink" 
	 viewBox="0 0 32 32" xml:space="preserve">
<path d="M21,2H11c-5,0-9,4-9,9v10c0,5,4,9,9,9h10c5,0,9-4,9-9V11C30,6,26,2,21,2z M18.7,20.3c0.4,0.4,0.4,1,0,1.4
	C18.5,21.9,18.3,22,18,22s-0.5-0.1-0.7-0.3l-5-5c-0.4-0.4-0.4-1,0-1.4l5-5c0.4-0.4,1-0.4,1.4,0s0.4,1,0,1.4L14.4,16L18.7,20.3z"/>
</svg>